<?xml version="1.0" encoding="UTF-8"?>
<!DOCTYPE svg PUBLIC "-//W3C//DTD SVG 1.1//EN" "http://www.w3.org/Graphics/SVG/1.1/DTD/svg11.dtd">
<!-- Creator: CorelDRAW X7 -->
<svg xmlns="http://www.w3.org/2000/svg" xml:space="preserve" width="924.017mm" height="559.083mm" version="1.1" style="shape-rendering:geometricPrecision; text-rendering:geometricPrecision; image-rendering:optimizeQuality; fill-rule:evenodd; clip-rule:evenodd"
viewBox="0 0 21305 12891"
 xmlns:xlink="http://www.w3.org/1999/xlink">
 <defs>
  <style type="text/css">
   <![CDATA[
    .str0 {stroke:white;stroke-width:4.61133}
    .fil0 {fill:#2B2A29}
   ]]>
  </style>
 </defs>
 <g id="Layer_x0020_1">
  <metadata id="CorelCorpID_0Corel-Layer"/>
  <path class="fil0" d="M2536 7166c7,6 45,40 105,93 65,56 155,135 261,226 95,82 204,175 317,273 101,86 205,175 307,261 76,64 150,126 219,184 64,53 121,100 167,138 44,36 83,67 114,92 24,18 41,31 52,38l7 4c14,9 60,30 143,55 55,16 125,34 209,50 70,13 149,25 237,35l0 0c78,8 164,14 256,17l2 0c74,3 153,3 236,1 83,-2 173,-7 268,-15 95,-8 194,-19 297,-33 98,-14 201,-31 309,-52l17 -4c11,-2 29,-6 52,-10 18,-3 41,-8 68,-13 38,-7 60,-11 70,-12 17,-3 38,-7 63,-12l14 -2c387,-71 848,-157 1084,-289l7 -4 0 0c292,-163 750,-417 1315,-728 656,-362 1459,-803 2315,-1273 1033,-567 2206,-1210 3300,-1809 1608,-880 2992,-1637 3498,-1914l-3806 -2463 -5851 3001 0 0 -25 13c-83,43 -164,83 -242,121 -77,38 -156,75 -236,112 -79,36 -156,70 -232,102 -78,33 -153,65 -227,94l-3343 1716 0 0 0 0 0 0c-53,26 -117,65 -189,114 -69,48 -146,105 -225,169 -75,61 -153,128 -230,201 -73,67 -145,139 -215,213l-18 20c-55,60 -108,122 -159,186 -52,65 -101,132 -145,199 -42,62 -79,124 -110,186 -30,58 -56,116 -75,174l-5 13c-14,45 -26,86 -34,125 -9,42 -14,80 -17,115 -3,34 -3,64 -1,91 1,27 5,51 10,71l1 7c4,16 9,30 15,43 6,15 12,27 19,38 6,10 12,18 17,25 5,6 9,11 13,15l1 0 0 2z"/>
  <path class="fil0" d="M6086 8665c-465,91 -853,115 -1161,104 -561,-18 -868,-148 -913,-176 -59,-37 -300,-235 -575,-469 -444,-375 -981,-842 -1004,-867 -20,-23 -72,-79 -97,-191 -25,-105 -27,-264 50,-489 94,-274 302,-561 537,-814 318,-340 687,-622 897,-728l2924 -1500c-14,4 -30,9 -46,15 -472,148 -960,250 -1535,326 -1054,141 -2324,516 -3351,1197 -794,526 -1441,1235 -1725,2160 -85,275 -118,565 -52,836 56,225 180,440 402,621 133,108 298,256 485,425 325,293 718,648 1124,953 356,268 721,497 1057,613 817,282 1814,302 2764,193 1352,-155 2603,-569 3104,-865 548,-324 962,-658 1276,-967 313,-309 527,-594 678,-826 33,-49 52,-79 72,-108 360,-559 600,-932 2119,-1757 2576,-1403 4937,-2840 5335,-3083l-402 -760c-806,441 -8865,4849 -10572,5803 -259,145 -741,233 -1140,307 -86,15 -169,31 -251,47zm-4250 140l0 0zm896 -241c-44,36 -83,66 -109,87 -65,53 -132,108 -201,163l-33 27 -127 102 -132 105c-44,36 -101,57 -157,61 -55,6 -112,-6 -154,-37 -16,-10 -28,-22 -39,-37 -20,-26 -28,-57 -28,-87 2,-31 12,-62 32,-90 13,-19 31,-37 52,-53l148 -107 142 -105c45,-33 90,-65 133,-98 43,-31 86,-62 127,-94 69,-50 115,-84 160,-117l77 -56 109 -81c35,-26 71,-53 105,-78l2 -1c35,-26 78,-34 117,-28 39,7 76,28 101,62l1 3c25,33 35,74 29,112 -4,40 -23,77 -55,104l-64 51c-43,35 -87,70 -132,107l-104 85z"/>
  <path class="fil0" d="M9060 10152c-516,304 -1793,729 -3166,885 -970,111 -1993,89 -2833,-201 -355,-123 -734,-361 -1103,-637 -417,-312 -818,-674 -1152,-973 -183,-166 -345,-313 -477,-420 -109,-88 -197,-185 -267,-287 46,512 111,1141 186,1547 3,17 24,55 49,98 41,66 91,136 111,158 298,331 896,958 1534,1486 411,342 838,639 1206,786 791,315 1812,348 2799,242 1434,-154 2794,-598 3299,-898 1060,-627 1547,-1372 1851,-1840l29 -45c67,-100 117,-186 163,-266 263,-450 446,-760 1876,-1558 1142,-636 2268,-1267 3194,-1788 946,-532 1626,-917 1942,-1096 94,-53 157,-175 175,-216l-3 -1679c-551,337 -2808,1703 -5273,3045 -1483,807 -1716,1167 -2063,1704 -26,42 -54,85 -70,110 -156,238 -377,533 -701,852 -322,317 -747,659 -1306,991zm-8269 -576l0 0zm1393 1428c-3,45 -4,86 -7,120 -2,57 -5,101 -6,109 -2,13 -7,30 -31,51 -18,15 -49,33 -103,56 -46,21 -81,33 -122,28 -40,-7 -79,-29 -137,-80 -106,-92 -800,-688 -831,-717 -8,-5 -73,-55 -138,-190 -65,-138 -149,-297 -149,-297 -4,-8 -26,-62 -32,-264 -4,-134 -7,-174 -8,-187l0 -6c0,-8 0,-10 1,-15l0 -1c3,-10 8,-20 15,-31 6,-8 14,-17 24,-24l1 -1c24,-18 52,-40 128,20l2 1 1217 1038c78,66 123,135 149,201 25,66 31,131 27,189z"/>
  <path class="fil0" d="M2053 10915l0 0zm25 109c14,4 28,4 42,2 8,-1 17,-3 25,-6l2 -19 0 -14 0 -10c-8,-2 -16,-6 -25,-11 -5,-2 -10,-5 -15,-8 -16,-11 -33,-24 -54,-43 -98,-84 -740,-636 -746,-643 -6,-4 -61,-46 -117,-164 -24,-49 -50,-102 -73,-147 -7,-14 -14,-28 -21,-41 -13,-26 -24,-47 -32,-61l-92 -79c1,14 2,26 3,37 8,64 15,77 15,77 0,1 77,145 135,267 57,120 113,159 113,159 2,2 648,557 747,644 40,35 68,53 93,60z"/>
  <line class="fil0 str0" x1="21305" y1="690" x2="21305" y2= "690" />
  <line class="fil0 str0" x1="9660" y1="1412" x2="9660" y2= "1412" />
  <path class="fil0" d="M19552 1995l-1282 732 52 101 1312 -756c4,9 5,19 5,30l0 3 -1 33 -11 370c-2,64 -2,67 -83,104 -323,178 -719,434 -1054,565l55 113 146 -63c-1,-2 0,2 0,0l1027 -566c49,-22 52,-65 55,-105l1 -3 0 -2 14 -454 1 -35 0 -3c0,-54 -34,-77 -81,-107 -2,-1 -6,-4 -13,-9 -553,-366 -747,-491 -1270,-830 -303,-196 -716,-463 -1376,-890l-1 -2 -2 -1c-17,-8 -43,-11 -69,-11 -31,2 -66,8 -79,15l-727 392 -495 270 121 79 439 -240 669 -361c12,-6 44,-12 73,-13 23,0 47,2 63,10l1 1 2 1c607,393 986,639 1265,819 480,311 659,427 1168,763l1 0 74 50z"/>
 </g>
</svg>
