<?xml version="1.0" encoding="utf-8"?>
<!-- Generator: Adobe Illustrator 16.0.0, SVG Export Plug-In . SVG Version: 6.00 Build 0)  -->
<!DOCTYPE svg PUBLIC "-//W3C//DTD SVG 1.1//EN" "http://www.w3.org/Graphics/SVG/1.1/DTD/svg11.dtd">
<svg version="1.1" id="Calque_1" xmlns="http://www.w3.org/2000/svg" xmlns:xlink="http://www.w3.org/1999/xlink" x="0px" y="0px"
	 width="66.666px" height="51.63px" viewBox="17.963 8.629 66.666 51.63" enable-background="new 17.963 8.629 66.666 51.63"
	 xml:space="preserve">
<g>
	<path d="M31.402,60.26c-1.294,0-2.343-1.049-2.343-2.344c0-2.338-0.91-4.535-2.563-6.188c-1.653-1.653-3.851-2.563-6.189-2.563
		c-1.295,0-2.344-1.049-2.344-2.343c0-1.294,1.049-2.343,2.343-2.343c3.589,0,6.963,1.398,9.502,3.936
		c2.539,2.539,3.937,5.914,3.937,9.503C33.745,59.211,32.696,60.26,31.402,60.26z"/>
</g>
<g>
	<path d="M42.497,60.26c-1.294,0-2.343-1.049-2.343-2.344c0-5.301-2.064-10.286-5.813-14.035c-3.749-3.749-8.733-5.813-14.035-5.813
		c-1.294,0-2.343-1.049-2.343-2.343s1.049-2.343,2.343-2.343c6.553,0,12.714,2.552,17.349,7.186
		c4.634,4.634,7.186,10.795,7.186,17.348C44.84,59.211,43.791,60.26,42.497,60.26z"/>
</g>
<g>
	<path d="M20.907,60.25c-0.773,0-1.523-0.316-2.073-0.86c-0.544-0.546-0.855-1.301-0.855-2.068c0-0.772,0.311-1.528,0.855-2.073
		c0.55-0.545,1.3-0.861,2.073-0.861c0.768,0,1.523,0.316,2.067,0.861s0.861,1.301,0.861,2.073c0,0.768-0.316,1.522-0.861,2.068
		C22.43,59.934,21.674,60.25,20.907,60.25z"/>
</g>
<g>
	<path d="M82.287,60.26h-29.58c-1.295,0-2.343-1.049-2.343-2.344c0-1.294,1.048-2.343,2.343-2.343h27.236V13.315H22.649v12.886
		c0,1.294-1.049,2.343-2.343,2.343c-1.294,0-2.343-1.049-2.343-2.343V10.973c0-1.294,1.049-2.343,2.343-2.343h61.981
		c1.293,0,2.342,1.049,2.342,2.343v46.944C84.629,59.211,83.58,60.26,82.287,60.26z"/>
</g>
</svg>
